<?xml version="1.0" standalone="no"?>
 <!DOCTYPE svg PUBLIC "-//W3C//DTD SVG 1.1//EN" 
 "http://www.w3.org/Graphics/SVG/1.1/DTD/svg11.dtd"> 
<svg xmlns="http://www.w3.org/2000/svg" version="1.1" 
    width="29.7002cm" height="21.0007cm" viewBox="0 0 116930 82680 ">
<title>SVG Picture created as 555-doorbell-brd.svg date 2017/05/28 13:23:58 </title>
  <desc>Picture generated by PCBNEW </desc>
<g style="fill:#000000; fill-opacity:1;stroke:#000000; stroke-opacity:1;
stroke-linecap:round; stroke-linejoin:round; "
 transform="translate(0 0) scale(1 1)">
</g>
<g style="fill:#000000; fill-opacity:0.0; 
stroke:#000000; stroke-width:-0.000393701; stroke-opacity:1; 
stroke-linecap:round; stroke-linejoin:round;">
</g>
<g style="fill:#000000; fill-opacity:0.0; 
stroke:#000000; stroke-width:118.11; stroke-opacity:1; 
stroke-linecap:round; stroke-linejoin:round;">
<path d="M68553 39242
L68553 38961
L68272 38933
L68300 38961
L68328 39017
L68328 39158
L68300 39214
L68272 39242
L68215 39270
L68075 39270
L68019 39242
L67990 39214
L67962 39158
L67962 39017
L67990 38961
L68019 38933
" />
<path d="M68553 39804
L68553 39523
L68272 39495
L68300 39523
L68328 39579
L68328 39720
L68300 39776
L68272 39804
L68215 39833
L68075 39833
L68019 39804
L67990 39776
L67962 39720
L67962 39579
L67990 39523
L68019 39495
" />
<path d="M68553 40367
L68553 40086
L68272 40058
L68300 40086
L68328 40142
L68328 40283
L68300 40339
L68272 40367
L68215 40395
L68075 40395
L68019 40367
L67990 40339
L67962 40283
L67962 40142
L67990 40086
L68019 40058
" />
<path d="M68187 40648
L68187 41098
" />
<path d="M67962 41379
L68553 41379
L68553 41520
L68525 41604
L68469 41660
L68412 41689
L68300 41717
L68215 41717
L68103 41689
L68047 41660
L67990 41604
L67962 41520
L67962 41379
" />
<path d="M67962 42054
L67990 41998
L68019 41970
L68075 41942
L68244 41942
L68300 41970
L68328 41998
L68356 42054
L68356 42139
L68328 42195
L68300 42223
L68244 42251
L68075 42251
L68019 42223
L67990 42195
L67962 42139
L67962 42054
" />
<path d="M67962 42588
L67990 42532
L68019 42504
L68075 42476
L68244 42476
L68300 42504
L68328 42532
L68356 42588
L68356 42673
L68328 42729
L68300 42757
L68244 42785
L68075 42785
L68019 42757
L67990 42729
L67962 42673
L67962 42588
" />
<path d="M67962 43038
L68356 43038
" />
<path d="M68244 43038
L68300 43067
L68328 43095
L68356 43151
L68356 43207
" />
<path d="M68272 43601
L68244 43685
L68215 43713
L68159 43741
L68075 43741
L68019 43713
L67990 43685
L67962 43629
L67962 43404
L68553 43404
L68553 43601
L68525 43657
L68497 43685
L68440 43713
L68384 43713
L68328 43685
L68300 43657
L68272 43601
L68272 43404
" />
<path d="M67990 44220
L67962 44163
L67962 44051
L67990 43995
L68047 43966
L68272 43966
L68328 43995
L68356 44051
L68356 44163
L68328 44220
L68272 44248
L68215 44248
L68159 43966
" />
<path d="M67962 44585
L67990 44529
L68047 44501
L68553 44501
" />
<path d="M67962 44894
L67990 44838
L68047 44810
L68553 44810
" />
<path d="M61835 48967
L61835 48376
" />
<path d="M61835 48601
L61891 48573
L62003 48573
L62060 48601
L62088 48629
L62116 48685
L62116 48854
L62088 48910
L62060 48939
L62003 48967
L61891 48967
L61835 48939
" />
<path d="M62313 48573
L62453 48967
" />
<path d="M62594 48573
L62453 48967
L62397 49107
L62369 49135
L62313 49164
" />
<path d="M63269 48573
L63269 49079
L63241 49135
L63184 49164
L63156 49164
" />
<path d="M63269 48376
L63241 48404
L63269 48432
L63297 48404
L63269 48376
L63269 48432
" />
<path d="M63803 48967
L63803 48657
L63775 48601
L63719 48573
L63606 48573
L63550 48601
" />
<path d="M63803 48939
L63747 48967
L63606 48967
L63550 48939
L63522 48882
L63522 48826
L63550 48770
L63606 48742
L63747 48742
L63803 48714
" />
<path d="M64084 48967
L64084 48573
" />
<path d="M64084 48376
L64056 48404
L64084 48432
L64112 48404
L64084 48376
L64084 48432
" />
<path d="M64366 48967
L64366 48573
" />
<path d="M64366 48629
L64394 48601
L64450 48573
L64534 48573
L64591 48601
L64619 48657
L64619 48967
" />
<path d="M64619 48657
L64647 48601
L64703 48573
L64787 48573
L64844 48601
L64872 48657
L64872 48967
" />
<path d="M65378 48939
L65322 48967
L65209 48967
L65153 48939
L65125 48882
L65125 48657
L65153 48601
L65209 48573
L65322 48573
L65378 48601
L65406 48657
L65406 48714
L65125 48770
" />
<path d="M65744 48967
L65687 48939
L65659 48882
L65659 48376
" />
<path d="M66222 48967
L66222 48657
L66193 48601
L66137 48573
L66025 48573
L65968 48601
" />
<path d="M66222 48939
L66165 48967
L66025 48967
L65968 48939
L65940 48882
L65940 48826
L65968 48770
L66025 48742
L66165 48742
L66222 48714
" />
<path d="M66503 48967
L66503 48376
" />
<path d="M66503 48601
L66559 48573
L66672 48573
L66728 48601
L66756 48629
L66784 48685
L66784 48854
L66756 48910
L66728 48939
L66672 48967
L66559 48967
L66503 48939
" />
<path d="M67121 48967
L67065 48939
L67037 48910
L67009 48854
L67009 48685
L67037 48629
L67065 48601
L67121 48573
L67206 48573
L67262 48601
L67290 48629
L67318 48685
L67318 48854
L67290 48910
L67262 48939
L67206 48967
L67121 48967
" />
<path d="M67571 48967
L67571 48573
" />
<path d="M67571 48685
L67600 48629
L67628 48601
L67684 48573
L67740 48573
" />
<path d="M68190 48967
L68190 48376
" />
<path d="M68190 48939
L68134 48967
L68021 48967
L67965 48939
L67937 48910
L67909 48854
L67909 48685
L67937 48629
L67965 48601
L68021 48573
L68134 48573
L68190 48601
" />
<path d="M68724 48967
L68724 48657
L68696 48601
L68640 48573
L68528 48573
L68471 48601
" />
<path d="M68724 48939
L68668 48967
L68528 48967
L68471 48939
L68443 48882
L68443 48826
L68471 48770
L68528 48742
L68668 48742
L68724 48714
" />
</g>
<g style="fill:#000000; fill-opacity:1.0; 
stroke:#000000; stroke-width:0; stroke-opacity:1; 
stroke-linecap:round; stroke-linejoin:round;">
<circle cx="65945.7" cy="33826.8" r="492" /> 
</g>
<g style="fill:#000000; fill-opacity:1.0; 
stroke:#000000; stroke-width:19.685; stroke-opacity:1; 
stroke-linecap:round; stroke-linejoin:round;">
</g>
<g style="fill:#000000; fill-opacity:1.0; 
stroke:#000000; stroke-width:0; stroke-opacity:1; 
stroke-linecap:round; stroke-linejoin:round;">
<circle cx="65945.7" cy="37826.8" r="492" /> 
</g>
<g style="fill:#000000; fill-opacity:1.0; 
stroke:#000000; stroke-width:19.685; stroke-opacity:1; 
stroke-linecap:round; stroke-linejoin:round;">
</g>
<g style="fill:#000000; fill-opacity:1.0; 
stroke:#000000; stroke-width:0; stroke-opacity:1; 
stroke-linecap:round; stroke-linejoin:round;">
<circle cx="60130" cy="36900" r="393.701" /> 
</g>
<g style="fill:#000000; fill-opacity:1.0; 
stroke:#000000; stroke-width:19.685; stroke-opacity:1; 
stroke-linecap:round; stroke-linejoin:round;">
</g>
<g style="fill:#000000; fill-opacity:1.0; 
stroke:#000000; stroke-width:0; stroke-opacity:1; 
stroke-linecap:round; stroke-linejoin:round;">
<circle cx="62098.5" cy="36900" r="393.701" /> 
</g>
<g style="fill:#000000; fill-opacity:1.0; 
stroke:#000000; stroke-width:19.685; stroke-opacity:1; 
stroke-linecap:round; stroke-linejoin:round;">
</g>
<g style="fill:#000000; fill-opacity:1.0; 
stroke:#000000; stroke-width:0; stroke-opacity:1; 
stroke-linecap:round; stroke-linejoin:round;">
<polyline style="fill-rule:evenodd;"
points="64915,42585
64915,43214
65544,43214
65544,42585
64915,42585
" /> 
<circle cx="66214.3" cy="42900" r="314.961" /> 
</g>
<g style="fill:#000000; fill-opacity:1.0; 
stroke:#000000; stroke-width:19.685; stroke-opacity:1; 
stroke-linecap:round; stroke-linejoin:round;">
</g>
<g style="fill:#000000; fill-opacity:1.0; 
stroke:#000000; stroke-width:0; stroke-opacity:1; 
stroke-linecap:round; stroke-linejoin:round;">
<circle cx="56930" cy="42100" r="393.701" /> 
</g>
<g style="fill:#000000; fill-opacity:1.0; 
stroke:#000000; stroke-width:19.685; stroke-opacity:1; 
stroke-linecap:round; stroke-linejoin:round;">
</g>
<g style="fill:#000000; fill-opacity:1.0; 
stroke:#000000; stroke-width:0; stroke-opacity:1; 
stroke-linecap:round; stroke-linejoin:round;">
<circle cx="54961.5" cy="42100" r="393.701" /> 
</g>
<g style="fill:#000000; fill-opacity:1.0; 
stroke:#000000; stroke-width:19.685; stroke-opacity:1; 
stroke-linecap:round; stroke-linejoin:round;">
</g>
<g style="fill:#000000; fill-opacity:1.0; 
stroke:#000000; stroke-width:0; stroke-opacity:1; 
stroke-linecap:round; stroke-linejoin:round;">
<circle cx="56930" cy="43400" r="393.701" /> 
</g>
<g style="fill:#000000; fill-opacity:1.0; 
stroke:#000000; stroke-width:19.685; stroke-opacity:1; 
stroke-linecap:round; stroke-linejoin:round;">
</g>
<g style="fill:#000000; fill-opacity:1.0; 
stroke:#000000; stroke-width:0; stroke-opacity:1; 
stroke-linecap:round; stroke-linejoin:round;">
<circle cx="54961.5" cy="43400" r="393.701" /> 
</g>
<g style="fill:#000000; fill-opacity:1.0; 
stroke:#000000; stroke-width:19.685; stroke-opacity:1; 
stroke-linecap:round; stroke-linejoin:round;">
</g>
<g style="fill:#000000; fill-opacity:1.0; 
stroke:#000000; stroke-width:0; stroke-opacity:1; 
stroke-linecap:round; stroke-linejoin:round;">
<polyline style="fill-rule:evenodd;"
points="64915,40285
64915,40914
65544,40914
65544,40285
64915,40285
" /> 
<circle cx="66214.3" cy="40600" r="314.961" /> 
</g>
<g style="fill:#000000; fill-opacity:1.0; 
stroke:#000000; stroke-width:19.685; stroke-opacity:1; 
stroke-linecap:round; stroke-linejoin:round;">
</g>
<g style="fill:#000000; fill-opacity:1.0; 
stroke:#000000; stroke-width:0; stroke-opacity:1; 
stroke-linecap:round; stroke-linejoin:round;">
<polyline style="fill-rule:evenodd;"
points="59875,42945
59875,43654
60584,43654
60584,42945
59875,42945
" /> 
</g>
<g style="fill:#000000; fill-opacity:1.0; 
stroke:#000000; stroke-width:708.661; stroke-opacity:1; 
stroke-linecap:round; stroke-linejoin:round;">
</g>
<g style="fill:#000000; fill-opacity:0.0; 
stroke:#000000; stroke-width:708.661; stroke-opacity:1; 
stroke-linecap:round; stroke-linejoin:round;">
<path d="M62230 43300
L62230 43300
" />
</g>
<g style="fill:#000000; fill-opacity:0.0; 
stroke:#000000; stroke-width:0; stroke-opacity:1; 
stroke-linecap:round; stroke-linejoin:round;">
</g>
<g style="fill:#000000; fill-opacity:1.0; 
stroke:#000000; stroke-width:0; stroke-opacity:1; 
stroke-linecap:round; stroke-linejoin:round;">
<polyline style="fill-rule:evenodd;"
points="59875,44345
59875,45054
60584,45054
60584,44345
59875,44345
" /> 
</g>
<g style="fill:#000000; fill-opacity:1.0; 
stroke:#000000; stroke-width:708.661; stroke-opacity:1; 
stroke-linecap:round; stroke-linejoin:round;">
</g>
<g style="fill:#000000; fill-opacity:0.0; 
stroke:#000000; stroke-width:708.661; stroke-opacity:1; 
stroke-linecap:round; stroke-linejoin:round;">
<path d="M62230 44700
L62230 44700
" />
</g>
<g style="fill:#000000; fill-opacity:1.0; 
stroke:#000000; stroke-width:0; stroke-opacity:1; 
stroke-linecap:round; stroke-linejoin:round;">
<circle cx="66430" cy="46500" r="314.961" /> 
</g>
<g style="fill:#000000; fill-opacity:1.0; 
stroke:#000000; stroke-width:19.685; stroke-opacity:1; 
stroke-linecap:round; stroke-linejoin:round;">
</g>
<g style="fill:#000000; fill-opacity:1.0; 
stroke:#000000; stroke-width:629.921; stroke-opacity:1; 
stroke-linecap:round; stroke-linejoin:round;">
</g>
<g style="fill:#000000; fill-opacity:0.0; 
stroke:#000000; stroke-width:629.921; stroke-opacity:1; 
stroke-linecap:round; stroke-linejoin:round;">
<path d="M62430 46500
L62430 46500
" />
</g>
<g style="fill:#000000; fill-opacity:1.0; 
stroke:#000000; stroke-width:0; stroke-opacity:1; 
stroke-linecap:round; stroke-linejoin:round;">
<circle cx="57280" cy="39550" r="314.961" /> 
</g>
<g style="fill:#000000; fill-opacity:1.0; 
stroke:#000000; stroke-width:19.685; stroke-opacity:1; 
stroke-linecap:round; stroke-linejoin:round;">
</g>
<g style="fill:#000000; fill-opacity:1.0; 
stroke:#000000; stroke-width:629.921; stroke-opacity:1; 
stroke-linecap:round; stroke-linejoin:round;">
</g>
<g style="fill:#000000; fill-opacity:0.0; 
stroke:#000000; stroke-width:629.921; stroke-opacity:1; 
stroke-linecap:round; stroke-linejoin:round;">
<path d="M57280 35550
L57280 35550
" />
</g>
<g style="fill:#000000; fill-opacity:1.0; 
stroke:#000000; stroke-width:0; stroke-opacity:1; 
stroke-linecap:round; stroke-linejoin:round;">
<circle cx="55980" cy="35550" r="314.961" /> 
</g>
<g style="fill:#000000; fill-opacity:1.0; 
stroke:#000000; stroke-width:19.685; stroke-opacity:1; 
stroke-linecap:round; stroke-linejoin:round;">
</g>
<g style="fill:#000000; fill-opacity:1.0; 
stroke:#000000; stroke-width:629.921; stroke-opacity:1; 
stroke-linecap:round; stroke-linejoin:round;">
</g>
<g style="fill:#000000; fill-opacity:0.0; 
stroke:#000000; stroke-width:629.921; stroke-opacity:1; 
stroke-linecap:round; stroke-linejoin:round;">
<path d="M55980 39550
L55980 39550
" />
</g>
<g style="fill:#000000; fill-opacity:1.0; 
stroke:#000000; stroke-width:0; stroke-opacity:1; 
stroke-linecap:round; stroke-linejoin:round;">
<circle cx="54680" cy="35550" r="314.961" /> 
</g>
<g style="fill:#000000; fill-opacity:1.0; 
stroke:#000000; stroke-width:19.685; stroke-opacity:1; 
stroke-linecap:round; stroke-linejoin:round;">
</g>
<g style="fill:#000000; fill-opacity:1.0; 
stroke:#000000; stroke-width:629.921; stroke-opacity:1; 
stroke-linecap:round; stroke-linejoin:round;">
</g>
<g style="fill:#000000; fill-opacity:0.0; 
stroke:#000000; stroke-width:629.921; stroke-opacity:1; 
stroke-linecap:round; stroke-linejoin:round;">
<path d="M54680 39550
L54680 39550
" />
</g>
<g style="fill:#000000; fill-opacity:1.0; 
stroke:#000000; stroke-width:0; stroke-opacity:1; 
stroke-linecap:round; stroke-linejoin:round;">
<circle cx="56830" cy="47171.7" r="393.701" /> 
</g>
<g style="fill:#000000; fill-opacity:1.0; 
stroke:#000000; stroke-width:19.685; stroke-opacity:1; 
stroke-linecap:round; stroke-linejoin:round;">
</g>
<g style="fill:#000000; fill-opacity:1.0; 
stroke:#000000; stroke-width:0; stroke-opacity:1; 
stroke-linecap:round; stroke-linejoin:round;">
<circle cx="56830" cy="45400" r="393.701" /> 
</g>
<g style="fill:#000000; fill-opacity:1.0; 
stroke:#000000; stroke-width:19.685; stroke-opacity:1; 
stroke-linecap:round; stroke-linejoin:round;">
</g>
<g style="fill:#000000; fill-opacity:1.0; 
stroke:#000000; stroke-width:0; stroke-opacity:1; 
stroke-linecap:round; stroke-linejoin:round;">
<circle cx="54270.9" cy="47171.7" r="393.701" /> 
</g>
<g style="fill:#000000; fill-opacity:1.0; 
stroke:#000000; stroke-width:19.685; stroke-opacity:1; 
stroke-linecap:round; stroke-linejoin:round;">
</g>
<g style="fill:#000000; fill-opacity:1.0; 
stroke:#000000; stroke-width:0; stroke-opacity:1; 
stroke-linecap:round; stroke-linejoin:round;">
<circle cx="54270.9" cy="45400" r="393.701" /> 
</g>
<g style="fill:#000000; fill-opacity:1.0; 
stroke:#000000; stroke-width:19.685; stroke-opacity:1; 
stroke-linecap:round; stroke-linejoin:round;">
</g>
<g style="fill:#000000; fill-opacity:1.0; 
stroke:#000000; stroke-width:0; stroke-opacity:1; 
stroke-linecap:round; stroke-linejoin:round;">
<polyline style="fill-rule:evenodd;"
points="62914,38700
62914,38070
62284,38070
62284,38700
62914,38700
" /> 
</g>
<g style="fill:#000000; fill-opacity:1.0; 
stroke:#000000; stroke-width:629.921; stroke-opacity:1; 
stroke-linecap:round; stroke-linejoin:round;">
</g>
<g style="fill:#000000; fill-opacity:0.0; 
stroke:#000000; stroke-width:629.921; stroke-opacity:1; 
stroke-linecap:round; stroke-linejoin:round;">
<path d="M59599 41385
L59599 41385
" />
<path d="M62599 39385
L62599 39385
" />
<path d="M59599 40385
L59599 40385
" />
<path d="M62599 40385
L62599 40385
" />
<path d="M59599 39385
L59599 39385
" />
<path d="M62599 41385
L62599 41385
" />
<path d="M59599 38385
L59599 38385
" />
</g>
<g style="fill:#000000; fill-opacity:0.0; 
stroke:#000000; stroke-width:594.488; stroke-opacity:1; 
stroke-linecap:round; stroke-linejoin:round;">
<path d="M61630 34004
L61630 34595
" />
<path d="M60630 34004
L60630 34595
" />
</g>
<g style="fill:#000000; fill-opacity:0.0; 
stroke:#000000; stroke-width:400; stroke-opacity:1; 
stroke-linecap:round; stroke-linejoin:round;">
<path d="M54270 45400
L54270 45040
" />
<path d="M54270 45040
L53230 44000
" />
<path d="M53230 44000
L53230 34600
" />
<path d="M53230 34600
L53630 34200
" />
<path d="M53630 34200
L60530 34200
" />
<path d="M60530 34200
L60630 34300
" />
<path d="M60630 34300
L60630 35400
" />
<path d="M60130 35900
L60130 36900
" />
<path d="M60630 35400
L60130 35900
" />
<path d="M57280 39550
L57280 38950
" />
<path d="M57844 38385
L59599 38385
" />
<path d="M57280 38950
L57844 38385
" />
<path d="M60130 36900
L59599 37430
" />
<path d="M59599 37430
L59599 38385
" />
<path d="M62599 41385
L62599 41730
" />
<path d="M60830 42700
L60230 43300
" />
<path d="M61630 42700
L60830 42700
" />
<path d="M62599 41730
L61630 42700
" />
<path d="M65230 42900
L65230 44300
" />
<path d="M66430 45500
L66430 46500
" />
<path d="M65230 44300
L66430 45500
" />
<path d="M62599 41385
L63015 41385
" />
<path d="M64530 42900
L65230 42900
" />
<path d="M63015 41385
L64530 42900
" />
<path d="M57330 40900
L56530 40900
" />
<path d="M55230 40100
L54680 39550
" />
<path d="M55730 40100
L55230 40100
" />
<path d="M56530 40900
L55730 40100
" />
<path d="M56930 42100
L56930 41300
" />
<path d="M56930 41300
L57330 40900
" />
<path d="M59085 40900
L59599 40385
" />
<path d="M57330 40900
L59085 40900
" />
<path d="M62599 39385
L61544 39385
" />
<path d="M60544 40385
L59599 40385
" />
<path d="M61544 39385
L60544 40385
" />
<path d="M59599 41385
L59599 41830
" />
<path d="M58030 43400
L56930 43400
" />
<path d="M59599 41830
L58030 43400
" />
<path d="M65230 40600
L63830 40600
" />
<path d="M63615 40385
L62599 40385
" />
<path d="M63830 40600
L63615 40385
" />
<path d="M66214 40600
L66214 38095
" />
<path d="M66214 38095
L65945 37826
" />
<path d="M62230 44700
L61030 45900
" />
<path d="M57958 47171
L56830 47171
" />
<path d="M59230 45900
L57958 47171
" />
<path d="M61030 45900
L59230 45900
" />
<path d="M62230 43300
L62230 44700
" />
<path d="M60230 44700
L57130 44700
" />
<path d="M55230 34800
L55980 35550
" />
<path d="M53930 34800
L55230 34800
" />
<path d="M53830 34900
L53930 34800
" />
<path d="M53830 40300
L53830 34900
" />
<path d="M54530 40300
L53830 40300
" />
<path d="M55830 41600
L54530 40300
" />
<path d="M55830 43400
L55830 41600
" />
<path d="M57130 44700
L55830 43400
" />
<path d="M55980 35550
L57280 35550
" />
<path d="M54680 35550
L54680 37050
" />
<path d="M55980 38350
L55980 39550
" />
<path d="M54680 37050
L55980 38350
" />
<path d="M55980 39550
L55980 39650
" />
<path d="M55980 39650
L56530 40200
" />
<path d="M56530 40200
L58330 40200
" />
<path d="M58330 40200
L59144 39385
" />
<path d="M59144 39385
L59599 39385
" />
<path d="M59599 39385
L59415 39385
" />
</g>
<g style="fill:#000000; fill-opacity:1.0; 
stroke:#000000; stroke-width:100; stroke-opacity:1; 
stroke-linecap:round; stroke-linejoin:round;">
<polyline style="fill-rule:evenodd;"
points="52448,49323
61244,49323
61244,47777
69206,47777
69206,46651
67195,46651
67078,46932
66863,47148
66582,47264
66278,47265
65997,47148
65781,46933
65665,46652
65665,46637
62977,46637
62914,46790
62766,46953
62567,47047
62480,47000
62480,46550
62380,46550
62380,47000
62292,47047
62093,46953
61945,46790
61882,46637
61930,46550
62380,46550
62480,46550
62929,46550
62977,46637
65665,46637
65664,46362
62977,46362
62929,46450
62480,46450
62480,45999
62380,45999
62380,46450
61930,46450
61882,46362
61945,46209
62093,46046
62292,45952
62380,45999
62480,45999
62567,45952
62766,46046
62914,46209
62977,46362
65664,46362
65664,46348
65780,46069
65780,45769
64770,44759
64629,44548
64580,44300
64580,43550
64530,43550
64281,43500
64070,43359
62980,42269
62636,42612
62814,42731
62988,42992
63050,43300
62988,43607
62880,43770
62880,44229
62988,44392
63050,44700
62988,45007
62814,45268
62553,45443
62369,45479
61489,46359
61278,46500
61030,46550
59499,46550
58417,47631
58207,47772
57958,47821
57373,47821
57308,47886
56998,48015
56662,48015
56352,47887
56115,47650
55986,47340
55986,47338
55114,47338
54986,47648
54749,47886
54439,48015
54103,48015
53793,47887
53556,47650
53427,47340
53427,47004
53555,46694
53792,46456
54102,46328
54438,46327
54748,46455
54985,46693
55114,47003
55114,47338
55986,47338
55986,47004
56114,46694
56351,46456
56661,46328
56997,46327
57307,46455
57373,46521
57689,46521
58770,45440
58905,45350
57673,45350
57673,45567
57545,45877
57308,46114
56998,46243
56662,46243
56352,46115
56115,45878
55986,45568
55986,45232
56114,44922
56273,44762
55399,43888
55389,43898
55344,43853
55305,43958
55065,44047
54809,44038
54617,43958
54578,43853
54961,43470
54967,43476
55037,43405
55032,43400
54890,43400
54507,43783
54402,43744
54313,43504
54322,43248
54402,43055
54507,43016
54890,43400
55032,43400
55037,43394
54967,43323
54961,43329
54578,42946
54617,42841
54857,42752
55113,42761
55180,42789
55180,42705
55065,42747
54809,42738
54617,42658
54578,42553
54961,42170
54967,42176
55037,42105
55032,42100
54890,42100
54507,42483
54402,42444
54313,42204
54322,41948
54402,41755
54507,41716
54890,42100
55032,42100
55037,42094
54967,42023
54961,42029
54578,41646
54617,41541
54788,41477
54260,40950
53880,40950
53880,43730
54730,44581
54871,44792
54875,44811
54985,44921
55114,45231
55114,45567
54986,45877
54749,46114
54439,46243
54103,46243
53793,46115
53556,45878
53427,45568
53427,45232
53461,45150
52770,44459
52629,44248
52580,44000
52580,34600
52590,34548
52629,34351
52770,34140
53170,33740
53381,33599
53630,33550
60038,33550
60101,33455
60344,33293
60630,33237
60915,33293
61158,33455
61258,33606
61278,33582
61466,33480
61495,33474
61580,33522
61580,34250
61572,34250
61572,34350
61580,34350
61580,35077
61495,35125
61466,35119
61280,35018
61280,35400
61230,35648
61089,35859
60780,36169
60780,36356
60844,36421
60973,36731
60973,37067
60845,37377
60608,37614
60298,37743
60249,37743
60249,37985
60321,38093
60379,38385
60321,38678
60182,38885
60321,39093
60379,39385
60321,39678
60298,39712
61084,38926
61295,38785
61544,38735
62034,38735
62034,38498
62096,38435
62549,38435
62549,38443
62649,38443
62649,38435
63101,38435
63164,38498
63164,38750
63131,38829
63155,38844
63321,39093
63379,39385
63321,39678
63282,39735
63615,39735
63823,39777
63864,39785
64075,39926
64099,39950
64608,39950
64736,39862
64915,39826
65544,39826
65564,39829
65564,38688
65412,38625
65147,38361
65006,38021
63164,38021
63164,38273
63101,38335
62649,38335
62649,37883
62549,37883
62549,38335
62096,38335
62034,38273
62034,38021
62072,37929
62142,37858
62234,37820
62486,37820
62549,37883
62649,37883
62711,37820
62963,37820
63055,37858
63126,37929
63164,38021
65006,38021
65003,38014
65003,37640
65121,37353
62481,37353
62442,37458
62202,37547
61946,37538
61754,37458
61715,37353
62098,36970
62481,37353
65121,37353
65146,37293
65411,37028
65757,36884
66132,36884
66478,37027
66743,37292
66887,37638
66887,38013
66860,38078
66864,38095
66864,40170
66979,40447
66979,40751
66863,41032
66648,41248
66367,41364
66062,41365
65826,41267
65723,41337
65544,41373
64915,41373
64748,41342
64604,41250
63830,41250
63791,41242
64721,42172
64736,42162
64915,42126
65544,42126
65711,42157
65864,42256
65957,42391
66128,42330
66353,42341
66511,42406
66540,42503
66214,42829
66208,42823
66137,42894
66143,42900
66137,42905
66208,42976
66214,42970
66540,43296
66511,43393
66299,43469
66075,43458
65954,43409
65880,43525
65880,44030
66889,45040
67030,45251
67038,45289
67080,45500
67080,46070
67194,46347
67195,46651
69206,46651
69206,38370
69152,38370
69152,45429
67248,45429
67248,42814
66783,42814
66773,43039
66707,43196
66611,43226
66284,42900
66611,42573
66707,42603
66783,42814
67248,42814
67248,38370
69152,38370
69206,38370
69206,36795
62746,36795
62737,37051
62657,37244
62552,37283
62169,36900
62027,36900
61644,37283
61539,37244
61450,37004
61459,36748
61539,36555
61644,36516
62027,36900
62169,36900
62552,36516
62657,36555
62746,36795
69206,36795
69206,36446
62481,36446
62098,36829
61715,36446
61754,36341
61994,36252
62250,36261
62442,36341
62481,36446
69206,36446
69206,34351
66399,34351
66349,34466
66073,34572
65778,34564
65542,34466
65491,34351
65493,34350
62177,34350
62177,34645
62116,34850
61981,35017
61793,35119
61764,35125
61680,35077
61680,34350
62177,34350
65493,34350
65945,33897
66399,34351
69206,34351
69206,33699
66691,33699
66683,33994
66585,34230
66470,34280
66016,33826
65875,33826
65420,34280
65305,34230
65200,33954
62177,33954
62177,34250
61680,34250
61680,33522
61764,33474
61793,33480
61981,33582
62116,33749
62177,33954
65200,33954
65200,33954
65207,33659
65305,33423
65420,33372
65875,33826
66016,33826
66470,33372
66585,33423
66691,33699
69206,33699
69206,33301
66399,33301
65945,33756
65491,33301
65542,33186
65818,33081
66113,33089
66349,33186
66399,33301
69206,33301
69206,32566
52448,32566
52448,49323
" /> 
</g>
<g style="fill:#FFFFFF; fill-opacity:1.0; 
stroke:#FFFFFF; stroke-width:100; stroke-opacity:1; 
stroke-linecap:round; stroke-linejoin:round;">
</g>
<g style="fill:#FFFFFF; fill-opacity:1.0; 
stroke:#FFFFFF; stroke-width:0; stroke-opacity:1; 
stroke-linecap:round; stroke-linejoin:round;">
<circle cx="65945.7" cy="33826.8" r="197" /> 
</g>
<g style="fill:#FFFFFF; fill-opacity:1.0; 
stroke:#FFFFFF; stroke-width:19.685; stroke-opacity:1; 
stroke-linecap:round; stroke-linejoin:round;">
</g>
<g style="fill:#FFFFFF; fill-opacity:1.0; 
stroke:#FFFFFF; stroke-width:0; stroke-opacity:1; 
stroke-linecap:round; stroke-linejoin:round;">
<circle cx="65945.7" cy="37826.8" r="197" /> 
</g>
<g style="fill:#FFFFFF; fill-opacity:1.0; 
stroke:#FFFFFF; stroke-width:19.685; stroke-opacity:1; 
stroke-linecap:round; stroke-linejoin:round;">
</g>
<g style="fill:#FFFFFF; fill-opacity:1.0; 
stroke:#FFFFFF; stroke-width:0; stroke-opacity:1; 
stroke-linecap:round; stroke-linejoin:round;">
<circle cx="60130" cy="36900" r="196.85" /> 
</g>
<g style="fill:#FFFFFF; fill-opacity:1.0; 
stroke:#FFFFFF; stroke-width:19.685; stroke-opacity:1; 
stroke-linecap:round; stroke-linejoin:round;">
</g>
<g style="fill:#FFFFFF; fill-opacity:1.0; 
stroke:#FFFFFF; stroke-width:0; stroke-opacity:1; 
stroke-linecap:round; stroke-linejoin:round;">
<circle cx="62098.5" cy="36900" r="196.85" /> 
</g>
<g style="fill:#FFFFFF; fill-opacity:1.0; 
stroke:#FFFFFF; stroke-width:19.685; stroke-opacity:1; 
stroke-linecap:round; stroke-linejoin:round;">
</g>
<g style="fill:#FFFFFF; fill-opacity:1.0; 
stroke:#FFFFFF; stroke-width:0; stroke-opacity:1; 
stroke-linecap:round; stroke-linejoin:round;">
<circle cx="65230" cy="42900" r="157.48" /> 
</g>
<g style="fill:#FFFFFF; fill-opacity:1.0; 
stroke:#FFFFFF; stroke-width:19.685; stroke-opacity:1; 
stroke-linecap:round; stroke-linejoin:round;">
</g>
<g style="fill:#FFFFFF; fill-opacity:1.0; 
stroke:#FFFFFF; stroke-width:0; stroke-opacity:1; 
stroke-linecap:round; stroke-linejoin:round;">
<circle cx="66214.3" cy="42900" r="157.48" /> 
</g>
<g style="fill:#FFFFFF; fill-opacity:1.0; 
stroke:#FFFFFF; stroke-width:19.685; stroke-opacity:1; 
stroke-linecap:round; stroke-linejoin:round;">
</g>
<g style="fill:#FFFFFF; fill-opacity:1.0; 
stroke:#FFFFFF; stroke-width:0; stroke-opacity:1; 
stroke-linecap:round; stroke-linejoin:round;">
<circle cx="56930" cy="42100" r="196.85" /> 
</g>
<g style="fill:#FFFFFF; fill-opacity:1.0; 
stroke:#FFFFFF; stroke-width:19.685; stroke-opacity:1; 
stroke-linecap:round; stroke-linejoin:round;">
</g>
<g style="fill:#FFFFFF; fill-opacity:1.0; 
stroke:#FFFFFF; stroke-width:0; stroke-opacity:1; 
stroke-linecap:round; stroke-linejoin:round;">
<circle cx="54961.5" cy="42100" r="196.85" /> 
</g>
<g style="fill:#FFFFFF; fill-opacity:1.0; 
stroke:#FFFFFF; stroke-width:19.685; stroke-opacity:1; 
stroke-linecap:round; stroke-linejoin:round;">
</g>
<g style="fill:#FFFFFF; fill-opacity:1.0; 
stroke:#FFFFFF; stroke-width:0; stroke-opacity:1; 
stroke-linecap:round; stroke-linejoin:round;">
<circle cx="56930" cy="43400" r="196.85" /> 
</g>
<g style="fill:#FFFFFF; fill-opacity:1.0; 
stroke:#FFFFFF; stroke-width:19.685; stroke-opacity:1; 
stroke-linecap:round; stroke-linejoin:round;">
</g>
<g style="fill:#FFFFFF; fill-opacity:1.0; 
stroke:#FFFFFF; stroke-width:0; stroke-opacity:1; 
stroke-linecap:round; stroke-linejoin:round;">
<circle cx="54961.5" cy="43400" r="196.85" /> 
</g>
<g style="fill:#FFFFFF; fill-opacity:1.0; 
stroke:#FFFFFF; stroke-width:19.685; stroke-opacity:1; 
stroke-linecap:round; stroke-linejoin:round;">
</g>
<g style="fill:#FFFFFF; fill-opacity:1.0; 
stroke:#FFFFFF; stroke-width:0; stroke-opacity:1; 
stroke-linecap:round; stroke-linejoin:round;">
<circle cx="65230" cy="40600" r="157.48" /> 
</g>
<g style="fill:#FFFFFF; fill-opacity:1.0; 
stroke:#FFFFFF; stroke-width:19.685; stroke-opacity:1; 
stroke-linecap:round; stroke-linejoin:round;">
</g>
<g style="fill:#FFFFFF; fill-opacity:1.0; 
stroke:#FFFFFF; stroke-width:0; stroke-opacity:1; 
stroke-linecap:round; stroke-linejoin:round;">
<circle cx="66214.3" cy="40600" r="157.48" /> 
</g>
<g style="fill:#FFFFFF; fill-opacity:1.0; 
stroke:#FFFFFF; stroke-width:19.685; stroke-opacity:1; 
stroke-linecap:round; stroke-linejoin:round;">
</g>
<g style="fill:#FFFFFF; fill-opacity:1.0; 
stroke:#FFFFFF; stroke-width:0; stroke-opacity:1; 
stroke-linecap:round; stroke-linejoin:round;">
<circle cx="60230" cy="43300" r="177.165" /> 
</g>
<g style="fill:#FFFFFF; fill-opacity:1.0; 
stroke:#FFFFFF; stroke-width:19.685; stroke-opacity:1; 
stroke-linecap:round; stroke-linejoin:round;">
</g>
<g style="fill:#FFFFFF; fill-opacity:1.0; 
stroke:#FFFFFF; stroke-width:0; stroke-opacity:1; 
stroke-linecap:round; stroke-linejoin:round;">
<circle cx="62230" cy="43300" r="177.165" /> 
</g>
<g style="fill:#FFFFFF; fill-opacity:1.0; 
stroke:#FFFFFF; stroke-width:19.685; stroke-opacity:1; 
stroke-linecap:round; stroke-linejoin:round;">
</g>
<g style="fill:#FFFFFF; fill-opacity:1.0; 
stroke:#FFFFFF; stroke-width:0; stroke-opacity:1; 
stroke-linecap:round; stroke-linejoin:round;">
<circle cx="60230" cy="44700" r="177.165" /> 
</g>
<g style="fill:#FFFFFF; fill-opacity:1.0; 
stroke:#FFFFFF; stroke-width:19.685; stroke-opacity:1; 
stroke-linecap:round; stroke-linejoin:round;">
</g>
<g style="fill:#FFFFFF; fill-opacity:1.0; 
stroke:#FFFFFF; stroke-width:0; stroke-opacity:1; 
stroke-linecap:round; stroke-linejoin:round;">
<circle cx="62230" cy="44700" r="177.165" /> 
</g>
<g style="fill:#FFFFFF; fill-opacity:1.0; 
stroke:#FFFFFF; stroke-width:19.685; stroke-opacity:1; 
stroke-linecap:round; stroke-linejoin:round;">
</g>
<g style="fill:#FFFFFF; fill-opacity:1.0; 
stroke:#FFFFFF; stroke-width:0; stroke-opacity:1; 
stroke-linecap:round; stroke-linejoin:round;">
<circle cx="66430" cy="46500" r="157.48" /> 
</g>
<g style="fill:#FFFFFF; fill-opacity:1.0; 
stroke:#FFFFFF; stroke-width:19.685; stroke-opacity:1; 
stroke-linecap:round; stroke-linejoin:round;">
</g>
<g style="fill:#FFFFFF; fill-opacity:1.0; 
stroke:#FFFFFF; stroke-width:0; stroke-opacity:1; 
stroke-linecap:round; stroke-linejoin:round;">
<circle cx="62430" cy="46500" r="157.48" /> 
</g>
<g style="fill:#FFFFFF; fill-opacity:1.0; 
stroke:#FFFFFF; stroke-width:19.685; stroke-opacity:1; 
stroke-linecap:round; stroke-linejoin:round;">
</g>
<g style="fill:#FFFFFF; fill-opacity:1.0; 
stroke:#FFFFFF; stroke-width:0; stroke-opacity:1; 
stroke-linecap:round; stroke-linejoin:round;">
<circle cx="57280" cy="39550" r="157.48" /> 
</g>
<g style="fill:#FFFFFF; fill-opacity:1.0; 
stroke:#FFFFFF; stroke-width:19.685; stroke-opacity:1; 
stroke-linecap:round; stroke-linejoin:round;">
</g>
<g style="fill:#FFFFFF; fill-opacity:1.0; 
stroke:#FFFFFF; stroke-width:0; stroke-opacity:1; 
stroke-linecap:round; stroke-linejoin:round;">
<circle cx="57280" cy="35550" r="157.48" /> 
</g>
<g style="fill:#FFFFFF; fill-opacity:1.0; 
stroke:#FFFFFF; stroke-width:19.685; stroke-opacity:1; 
stroke-linecap:round; stroke-linejoin:round;">
</g>
<g style="fill:#FFFFFF; fill-opacity:1.0; 
stroke:#FFFFFF; stroke-width:0; stroke-opacity:1; 
stroke-linecap:round; stroke-linejoin:round;">
<circle cx="55980" cy="35550" r="157.48" /> 
</g>
<g style="fill:#FFFFFF; fill-opacity:1.0; 
stroke:#FFFFFF; stroke-width:19.685; stroke-opacity:1; 
stroke-linecap:round; stroke-linejoin:round;">
</g>
<g style="fill:#FFFFFF; fill-opacity:1.0; 
stroke:#FFFFFF; stroke-width:0; stroke-opacity:1; 
stroke-linecap:round; stroke-linejoin:round;">
<circle cx="55980" cy="39550" r="157.48" /> 
</g>
<g style="fill:#FFFFFF; fill-opacity:1.0; 
stroke:#FFFFFF; stroke-width:19.685; stroke-opacity:1; 
stroke-linecap:round; stroke-linejoin:round;">
</g>
<g style="fill:#FFFFFF; fill-opacity:1.0; 
stroke:#FFFFFF; stroke-width:0; stroke-opacity:1; 
stroke-linecap:round; stroke-linejoin:round;">
<circle cx="54680" cy="35550" r="157.48" /> 
</g>
<g style="fill:#FFFFFF; fill-opacity:1.0; 
stroke:#FFFFFF; stroke-width:19.685; stroke-opacity:1; 
stroke-linecap:round; stroke-linejoin:round;">
</g>
<g style="fill:#FFFFFF; fill-opacity:1.0; 
stroke:#FFFFFF; stroke-width:0; stroke-opacity:1; 
stroke-linecap:round; stroke-linejoin:round;">
<circle cx="54680" cy="39550" r="157.48" /> 
</g>
<g style="fill:#FFFFFF; fill-opacity:1.0; 
stroke:#FFFFFF; stroke-width:19.685; stroke-opacity:1; 
stroke-linecap:round; stroke-linejoin:round;">
</g>
<g style="fill:#FFFFFF; fill-opacity:1.0; 
stroke:#FFFFFF; stroke-width:0; stroke-opacity:1; 
stroke-linecap:round; stroke-linejoin:round;">
<circle cx="56830" cy="47171.7" r="216.535" /> 
</g>
<g style="fill:#FFFFFF; fill-opacity:1.0; 
stroke:#FFFFFF; stroke-width:19.685; stroke-opacity:1; 
stroke-linecap:round; stroke-linejoin:round;">
</g>
<g style="fill:#FFFFFF; fill-opacity:1.0; 
stroke:#FFFFFF; stroke-width:0; stroke-opacity:1; 
stroke-linecap:round; stroke-linejoin:round;">
<circle cx="56830" cy="45400" r="216.535" /> 
</g>
<g style="fill:#FFFFFF; fill-opacity:1.0; 
stroke:#FFFFFF; stroke-width:19.685; stroke-opacity:1; 
stroke-linecap:round; stroke-linejoin:round;">
</g>
<g style="fill:#FFFFFF; fill-opacity:1.0; 
stroke:#FFFFFF; stroke-width:0; stroke-opacity:1; 
stroke-linecap:round; stroke-linejoin:round;">
<circle cx="54270.9" cy="47171.7" r="216.535" /> 
</g>
<g style="fill:#FFFFFF; fill-opacity:1.0; 
stroke:#FFFFFF; stroke-width:19.685; stroke-opacity:1; 
stroke-linecap:round; stroke-linejoin:round;">
</g>
<g style="fill:#FFFFFF; fill-opacity:1.0; 
stroke:#FFFFFF; stroke-width:0; stroke-opacity:1; 
stroke-linecap:round; stroke-linejoin:round;">
<circle cx="54270.9" cy="45400" r="216.535" /> 
</g>
<g style="fill:#FFFFFF; fill-opacity:1.0; 
stroke:#FFFFFF; stroke-width:19.685; stroke-opacity:1; 
stroke-linecap:round; stroke-linejoin:round;">
</g>
<g style="fill:#FFFFFF; fill-opacity:1.0; 
stroke:#FFFFFF; stroke-width:0; stroke-opacity:1; 
stroke-linecap:round; stroke-linejoin:round;">
<circle cx="62599.3" cy="38385.8" r="157.48" /> 
</g>
<g style="fill:#FFFFFF; fill-opacity:1.0; 
stroke:#FFFFFF; stroke-width:19.685; stroke-opacity:1; 
stroke-linecap:round; stroke-linejoin:round;">
</g>
<g style="fill:#FFFFFF; fill-opacity:1.0; 
stroke:#FFFFFF; stroke-width:0; stroke-opacity:1; 
stroke-linecap:round; stroke-linejoin:round;">
<circle cx="59599.3" cy="41385.8" r="157.48" /> 
</g>
<g style="fill:#FFFFFF; fill-opacity:1.0; 
stroke:#FFFFFF; stroke-width:19.685; stroke-opacity:1; 
stroke-linecap:round; stroke-linejoin:round;">
</g>
<g style="fill:#FFFFFF; fill-opacity:1.0; 
stroke:#FFFFFF; stroke-width:0; stroke-opacity:1; 
stroke-linecap:round; stroke-linejoin:round;">
<circle cx="62599.3" cy="39385.8" r="157.48" /> 
</g>
<g style="fill:#FFFFFF; fill-opacity:1.0; 
stroke:#FFFFFF; stroke-width:19.685; stroke-opacity:1; 
stroke-linecap:round; stroke-linejoin:round;">
</g>
<g style="fill:#FFFFFF; fill-opacity:1.0; 
stroke:#FFFFFF; stroke-width:0; stroke-opacity:1; 
stroke-linecap:round; stroke-linejoin:round;">
<circle cx="59599.3" cy="40385.8" r="157.48" /> 
</g>
<g style="fill:#FFFFFF; fill-opacity:1.0; 
stroke:#FFFFFF; stroke-width:19.685; stroke-opacity:1; 
stroke-linecap:round; stroke-linejoin:round;">
</g>
<g style="fill:#FFFFFF; fill-opacity:1.0; 
stroke:#FFFFFF; stroke-width:0; stroke-opacity:1; 
stroke-linecap:round; stroke-linejoin:round;">
<circle cx="62599.3" cy="40385.8" r="157.48" /> 
</g>
<g style="fill:#FFFFFF; fill-opacity:1.0; 
stroke:#FFFFFF; stroke-width:19.685; stroke-opacity:1; 
stroke-linecap:round; stroke-linejoin:round;">
</g>
<g style="fill:#FFFFFF; fill-opacity:1.0; 
stroke:#FFFFFF; stroke-width:0; stroke-opacity:1; 
stroke-linecap:round; stroke-linejoin:round;">
<circle cx="59599.3" cy="39385.8" r="157.48" /> 
</g>
<g style="fill:#FFFFFF; fill-opacity:1.0; 
stroke:#FFFFFF; stroke-width:19.685; stroke-opacity:1; 
stroke-linecap:round; stroke-linejoin:round;">
</g>
<g style="fill:#FFFFFF; fill-opacity:1.0; 
stroke:#FFFFFF; stroke-width:0; stroke-opacity:1; 
stroke-linecap:round; stroke-linejoin:round;">
<circle cx="62599.3" cy="41385.8" r="157.48" /> 
</g>
<g style="fill:#FFFFFF; fill-opacity:1.0; 
stroke:#FFFFFF; stroke-width:19.685; stroke-opacity:1; 
stroke-linecap:round; stroke-linejoin:round;">
</g>
<g style="fill:#FFFFFF; fill-opacity:1.0; 
stroke:#FFFFFF; stroke-width:0; stroke-opacity:1; 
stroke-linecap:round; stroke-linejoin:round;">
<circle cx="59599.3" cy="38385.8" r="157.48" /> 
</g>
<g style="fill:#FFFFFF; fill-opacity:1.0; 
stroke:#FFFFFF; stroke-width:19.685; stroke-opacity:1; 
stroke-linecap:round; stroke-linejoin:round;">
</g>
<g style="fill:#FFFFFF; fill-opacity:1.0; 
stroke:#FFFFFF; stroke-width:0; stroke-opacity:1; 
stroke-linecap:round; stroke-linejoin:round;">
<circle cx="61630" cy="34300" r="196.85" /> 
</g>
<g style="fill:#FFFFFF; fill-opacity:1.0; 
stroke:#FFFFFF; stroke-width:19.685; stroke-opacity:1; 
stroke-linecap:round; stroke-linejoin:round;">
</g>
<g style="fill:#FFFFFF; fill-opacity:1.0; 
stroke:#FFFFFF; stroke-width:0; stroke-opacity:1; 
stroke-linecap:round; stroke-linejoin:round;">
<circle cx="60630" cy="34300" r="196.85" /> 
</g>
<g style="fill:#FFFFFF; fill-opacity:1.0; 
stroke:#FFFFFF; stroke-width:19.685; stroke-opacity:1; 
stroke-linecap:round; stroke-linejoin:round;">
</g>
<g style="fill:#000000; fill-opacity:1.0; 
stroke:#000000; stroke-width:19.685; stroke-opacity:1; 
stroke-linecap:round; stroke-linejoin:round;">
</g>
<g style="fill:#000000; fill-opacity:1.0; 
stroke:#000000; stroke-width:59.0551; stroke-opacity:1; 
stroke-linecap:round; stroke-linejoin:round;">
</g>
<g style="fill:#000000; fill-opacity:0.0; 
stroke:#000000; stroke-width:59.0551; stroke-opacity:1; 
stroke-linecap:round; stroke-linejoin:round;">
<path d="M69685 49803
L69685 32086
" />
<path d="M51969 49803
L69685 49803
" />
<path d="M51969 32086
L51969 49803
" />
<path d="M51969 32086
L69685 32086
" />
</g> 
</svg>
